Coordinates
version=1
nRows=31
nColumns=38
inDegrees=no

Units are S.I. units (second, meters, Newtons, ...)
If the header above contains a line with 'inDegrees', this indicates whether rotational values are in degrees (yes) or radians (no).

endheader
time	pelvis_tilt	pelvis_list	pelvis_rotation	pelvis_tx	pelvis_ty	pelvis_tz	hip_flexion_r	hip_adduction_r	hip_rotation_r	knee_angle_r	ankle_angle_r	subtalar_angle_r	mtp_angle_r	hip_flexion_l	hip_adduction_l	hip_rotation_l	knee_angle_l	ankle_angle_l	subtalar_angle_l	mtp_angle_l	lumbar_extension	lumbar_bending	lumbar_rotation	arm_flex_r	arm_add_r	arm_rot_r	elbow_flex_r	pro_sup_r	wrist_flex_r	wrist_dev_r	arm_flex_l	arm_add_l	arm_rot_l	elbow_flex_l	pro_sup_l	wrist_flex_l	wrist_dev_l
0.56	-1.95895	1.4454	-2.82244	0.726196	0.0660432	0.997015	0.59481	-0.225206	0.0404123	1.40471	-0.203374	0	0	0.12375	0.169228	-0.210328	0.357713	0.11544	0	0	-0.272663	-0.142554	0.0511716	-0.0226197	-0.221841	0.0647936	0.374445	1.3485	0	0	0.0843806	-0.245713	0.474849	0.338349	1.16323	0	0
0.57	-1.97411	1.45928	-2.80434	0.725552	0.0744595	0.99676	0.606549	-0.212472	0.0302828	1.38244	-0.183825	0	0	0.115069	0.157437	-0.20114	0.356006	0.128817	0	0	-0.268689	-0.126615	0.0524576	-0.0245463	-0.225435	0.0650408	0.378343	1.34981	0	0	0.0863217	-0.241747	0.47444	0.335058	1.16728	0	0
0.58	-2.01368	1.46405	-2.76081	0.724806	0.0825584	0.997614	0.611088	-0.209435	0.0210855	1.35501	-0.165453	0	0	0.0995208	0.153246	-0.196317	0.350035	0.134594	0	0	-0.273022	-0.119036	0.0505149	-0.023367	-0.227046	0.0660063	0.381156	1.34943	0	0	0.0914781	-0.238002	0.471363	0.329693	1.17369	0	0
0.59	-2.04574	1.46791	-2.7255	0.724135	0.0906125	0.998364	0.614938	-0.207238	0.0123328	1.32395	-0.148031	0	0	0.0841302	0.150417	-0.19143	0.341819	0.139194	0	0	-0.27657	-0.112852	0.0488352	-0.0209251	-0.227887	0.0674866	0.381289	1.3479	0	0	0.0960669	-0.234241	0.466263	0.324961	1.17987	0	0
0.6	-2.10497	1.47102	-2.66263	0.723376	0.0986769	0.999298	0.613372	-0.205875	0.000700548	1.28832	-0.130213	0	0	0.0649372	0.147301	-0.185912	0.330919	0.143611	0	0	-0.283335	-0.105567	0.0462297	-0.0169862	-0.229887	0.0762874	0.380849	1.33343	0	0	0.102074	-0.226731	0.443744	0.314475	1.20326	0	0
0.61	-2.13878	1.47412	-2.62566	0.722718	0.106712	0.999858	0.61375	-0.205354	-0.0108053	1.25016	-0.113887	0	0	0.0496406	0.144873	-0.181456	0.322502	0.147172	0	0	-0.286986	-0.0999335	0.0445903	-0.0128416	-0.2302	0.0770012	0.377828	1.33244	0	0	0.105839	-0.224622	0.446258	0.313361	1.19775	0	0
0.62	-2.17332	1.47695	-2.58786	0.722119	0.114769	1.00032	0.612021	-0.205419	-0.0243292	1.20829	-0.0992936	0	0	0.0347383	0.142511	-0.17622	0.31515	0.15045	0	0	-0.290687	-0.0945857	0.0429302	-0.00852276	-0.230482	0.0782122	0.37413	1.33193	0	0	0.109601	-0.223124	0.450612	0.312598	1.19077	0	0
0.63	-2.19678	1.48021	-2.5619	0.721635	0.122891	1.00053	0.610318	-0.205061	-0.0384183	1.16409	-0.0856979	0	0	0.0213702	0.1399	-0.172829	0.307606	0.154477	0	0	-0.292635	-0.0896773	0.0422098	-0.00504105	-0.230808	0.0792938	0.370876	1.33152	0	0	0.112607	-0.222363	0.456918	0.312872	1.18243	0	0
0.64	-2.28721	1.48152	-2.46697	0.720931	0.131182	1.00131	0.598074	-0.205726	-0.0599635	1.11447	-0.07075	0	0	0.000944635	0.135392	-0.166042	0.299146	0.156845	0	0	-0.301981	-0.0811334	0.0377678	0.000453731	-0.233719	0.0936275	0.368538	1.3148	0	0	0.124979	-0.201578	0.345981	0.276279	1.32423	0	0
0.65	-2.3278	1.47312	-2.42294	0.720393	0.139229	1.0028	0.583363	-0.215453	-0.0774935	1.06193	-0.0583815	0	0	-0.0213752	0.139985	-0.166012	0.290768	0.154446	0	0	-0.315455	-0.0843973	0.0334296	0.00687416	-0.232598	0.0948944	0.36487	1.31273	0	0	0.13098	-0.201916	0.346568	0.276049	1.32117	0	0
0.66	-2.41239	1.48565	-2.33521	0.720001	0.147796	1.0019	0.577583	-0.20571	-0.104912	1.00892	-0.0450235	0	0	-0.0303584	0.126556	-0.155119	0.28724	0.163229	0	0	-0.312212	-0.0673196	0.0356014	0.00642042	-0.236273	0.095463	0.366036	1.31079	0	0	0.131912	-0.199257	0.348019	0.276436	1.31593	0	0
0.67	-2.44854	1.47544	-2.29716	0.719711	0.155951	1.00345	0.558307	-0.214624	-0.125734	0.952148	-0.0340688	0	0	-0.0550549	0.131626	-0.156716	0.276592	0.159539	0	0	-0.32751	-0.0715585	0.0326441	0.0123249	-0.235081	0.0957464	0.363678	1.30947	0	0	0.137735	-0.200336	0.350217	0.277176	1.31233	0	0
0.68	-2.47681	1.4789	-2.26832	0.719713	0.16431	1.00328	0.550309	-0.211943	-0.147658	0.897182	-0.0237299	0	0	-0.0657585	0.127345	-0.155585	0.27269	0.165157	0	0	-0.328717	-0.0667778	0.034107	0.0137681	-0.235814	0.0965711	0.363714	1.30871	0	0	0.139986	-0.200291	0.353422	0.278125	1.30936	0	0
0.69	-2.50953	1.49563	-2.23499	0.719773	0.172784	1.00143	0.553207	-0.1997	-0.172519	0.843665	-0.014168	0	0	-0.0639506	0.114282	-0.151683	0.272475	0.177624	0	0	-0.316581	-0.0527435	0.0386674	0.0121155	-0.237256	0.088198	0.363205	1.32106	0	0	0.138971	-0.199276	0.360387	0.280034	1.30295	0	0
0.7	-2.65126	1.49749	-2.09055	0.719889	0.181407	1.00172	0.532842	-0.191311	-0.204643	0.780996	-0.00776571	0	0	-0.080613	0.103001	-0.150367	0.268568	0.183338	0	0	-0.324047	-0.0414236	0.0392525	0.0136845	-0.238807	0.0903217	0.364256	1.31885	0	0	0.142451	-0.197234	0.355445	0.277908	1.3119	0	0
0.71	-2.79863	1.49625	-1.94051	0.720145	0.1902	1.00201	0.510035	-0.181973	-0.237345	0.718731	-0.000767883	0	0	-0.0992493	0.0920358	-0.149673	0.264052	0.189728	0	0	-0.332729	-0.0309186	0.040097	0.0141923	-0.240831	0.0980718	0.366863	1.3077	0	0	0.143119	-0.200662	0.383407	0.28566	1.27476	0	0
0.72	-2.89926	1.49679	-1.83764	0.720593	0.199143	1.00188	0.492086	-0.172881	-0.269866	0.657956	0.00647389	0	0	-0.113037	0.0829836	-0.149116	0.261249	0.195995	0	0	-0.336558	-0.0228816	0.04039	0.0149147	-0.240755	0.0992311	0.366539	1.30702	0	0	0.145209	-0.199473	0.376456	0.283059	1.28416	0	0
0.73	-3.03137	1.49489	-1.70236	0.721115	0.208158	1.00191	0.470594	-0.160111	-0.303933	0.596464	0.0123553	0	0	-0.129231	0.0713789	-0.14872	0.258108	0.201951	0	0	-0.342781	-0.0124481	0.0402948	0.0157776	-0.240944	0.101309	0.366861	1.30579	0	0	0.147624	-0.198177	0.36926	0.280468	1.29293	0	0
0.74	3.11547	1.49173	-1.56333	0.721842	0.21724	1.00188	0.448888	-0.143201	-0.332428	0.535568	0.0193969	0	0	-0.14497	0.0579745	-0.151059	0.256177	0.20922	0	0	-0.348953	-0.00130566	0.0410756	0.0161957	-0.24114	0.103474	0.367963	1.30354	0	0	0.149906	-0.196977	0.361539	0.277971	1.30235	0	0
0.75	2.97575	1.4852	-1.42105	0.722746	0.226463	1.00198	0.423951	-0.121015	-0.352918	0.47403	0.0336132	0	0	-0.162819	0.0421303	-0.156168	0.254413	0.217432	0	0	-0.357079	0.0113893	0.0425078	0.0167668	-0.241279	0.10601	0.369	1.29999	0	0	0.152545	-0.195353	0.350113	0.274589	1.3168	0	0
0.76	2.80831	1.4626	-1.2484	0.723739	0.236056	1.00329	0.374812	-0.0830711	-0.366272	0.391661	0.0396384	0	0	-0.195663	0.0153779	-0.16333	0.250588	0.225373	0	0	-0.378945	0.0341911	0.0448253	0.0159821	-0.247572	0.139857	0.37828	1.24926	0	0	0.152101	-0.201268	0.392563	0.287077	1.26095	0	0
0.77	2.7258	1.45299	-1.16312	0.724908	0.245653	1.00328	0.346023	-0.0548981	-0.370509	0.322134	0.0420908	0	0	-0.2139	-0.000996377	-0.168911	0.248828	0.23197	0	0	-0.386217	0.0465575	0.0467235	0.0166718	-0.246608	0.142185	0.376564	1.24506	0	0	0.15234	-0.203298	0.399358	0.288943	1.25305	0	0
0.78	2.66017	1.44453	-1.09508	0.726227	0.255317	1.00309	0.318187	-0.0268618	-0.367256	0.252606	0.0390775	0	0	-0.230022	-0.0163467	-0.174519	0.248744	0.240461	0	0	-0.391631	0.0572264	0.0484767	0.017396	-0.245129	0.145614	0.373843	1.24068	0	0	0.152213	-0.205963	0.406838	0.29058	1.2449	0	0
0.79	2.60969	1.43878	-1.0425	0.72762	0.265082	1.00261	0.294793	-0.00249518	-0.361023	0.190514	0.0349565	0	0	-0.243145	-0.0291907	-0.180287	0.249768	0.247167	0	0	-0.394035	0.065193	0.0497382	0.0173971	-0.243078	0.149416	0.370987	1.23566	0	0	0.151692	-0.209073	0.414614	0.291695	1.23637	0	0
0.8	2.57911	1.43695	-1.00969	0.728867	0.27502	1.00176	0.280195	0.0135261	-0.360766	0.146212	0.0356768	0	0	-0.253654	-0.0371052	-0.184063	0.25039	0.251773	0	0	-0.392937	0.0691469	0.0494693	0.0159984	-0.240598	0.153062	0.369096	1.22992	0	0	0.150345	-0.212443	0.42224	0.292758	1.22736	0	0
0.81	2.55681	1.41706	-0.978631	0.730002	0.286075	1.00239	0.216873	0.0510471	-0.314535	0.0367251	-0.00558657	0	0	-0.282781	-0.0573354	-0.188232	0.24877	0.255519	0	0	-0.407566	0.0846754	0.0460608	0.0195832	-0.230913	0.107007	0.354433	1.30024	0	0	0.159054	-0.196617	0.309621	0.256956	1.37609	0	0
0.82	2.55584	1.4148	-0.973954	0.731132	0.296677	1.00161	0.201777	0.0607493	-0.314264	0.00606793	-0.00412877	0	0	-0.294987	-0.06244	-0.188288	0.251368	0.257932	0	0	-0.406899	0.086027	0.0435064	0.0160524	-0.228363	0.114435	0.353692	1.28909	0	0	0.154724	-0.201863	0.326264	0.261433	1.35492	0	0
0.83	2.55579	1.41325	-0.97123	0.732388	0.307301	1.00085	0.193126	0.0678534	-0.321364	0	0.00153577	0	0	-0.305585	-0.0668356	-0.187956	0.255854	0.260014	0	0	-0.405989	0.0865605	0.0416496	0.0133007	-0.22456	0.113931	0.35107	1.28978	0	0	0.151874	-0.204359	0.32496	0.260258	1.35831	0	0
0.84	2.55505	1.41055	-0.968263	0.733679	0.317974	1.00021	0.187861	0.0739434	-0.333065	0	0.00602604	0	0	-0.316113	-0.0723177	-0.188757	0.262523	0.261592	0	0	-0.40623	0.0878965	0.0404299	0.0104931	-0.220999	0.112659	0.34857	1.29065	0	0	0.148389	-0.206765	0.324889	0.2598	1.36288	0	0
0.85	2.55046	1.40786	-0.962319	0.735001	0.328656	0.999588	0.187238	0.0785873	-0.345836	0.00438537	0.00731343	0	0	-0.325029	-0.07825	-0.189772	0.271493	0.262151	0	0	-0.406291	0.0898456	0.0401222	0.00698286	-0.218137	0.110289	0.347445	1.29179	0	0	0.14424	-0.209005	0.324354	0.260603	1.36734	0	0
0.86	2.5435	1.40548	-0.954333	0.736298	0.339474	0.998958	0.191571	0.0807671	-0.362091	0.0309202	0.00671675	0	0	-0.332378	-0.0844734	-0.191263	0.282571	0.262221	0	0	-0.405626	0.0922333	0.0400573	0.00228993	-0.215949	0.107013	0.348044	1.29308	0	0	0.13921	-0.211079	0.322306	0.262546	1.37117	0	0
